# Blender v2.71 (sub 0) OBJ File: ''
# www.blender.org
o Blazerod2
v 0.770400 0.764800 0.024100
v 0.770400 0.827600 0.024100
v 0.833200 0.827600 0.024100
v 0.833200 0.764800 0.024100
v 0.770400 0.764800 0.798400
v 0.833200 0.764800 0.798400
v 0.833200 0.827600 0.798400
v 0.770400 0.827600 0.798400
vt 0.965800 0.063100
vt 0.965800 0.164200
vt 0.864700 0.164200
vt 0.864700 0.063100
vt 0.937700 0.609600
vt 0.984400 0.609600
vt 0.984400 0.984400
vt 0.937700 0.984400
vn 0.000000 0.000000 -1.000000
vn 0.000000 0.000000 1.000000
vn 0.000000 -1.000000 -0.000000
vn 1.000000 0.000000 0.000000
vn 0.000000 1.000000 0.000000
vn -1.000000 0.000000 0.000000
s off
f 1/1/1 2/2/1 3/3/1
f 4/4/1 1/1/1 3/3/1
f 5/4/2 6/1/2 7/2/2
f 7/2/2 8/3/2 5/4/2
f 1/5/3 4/6/3 6/7/3
f 5/8/3 1/5/3 6/7/3
f 4/5/4 3/6/4 7/7/4
f 7/7/4 6/8/4 4/5/4
f 3/5/5 2/6/5 8/7/5
f 8/7/5 7/8/5 3/5/5
f 2/5/6 1/6/6 5/7/6
f 5/7/6 8/8/6 2/5/6
